#N canvas 310 149 868 372 10;
#X obj 129 130 comport;
#X msg 101 93 devices;
#X msg 177 94 open 14;
#X obj 129 176 print;
#X msg 249 118 close;
#X obj 175 181 vsl 15 128 0 255 0 0 empty empty empty 0 -9 0 10 -262144
-1 -1 0 1;
#X obj 288 221 zl group 255;
#X obj 288 169 sel 255;
#X obj 288 252 unpack 0 0 0 0 0 0 0 0 0 0 0 0 0 0 0 0 0 0 0 0 0 0 0
0 0 0 0 0 0 0 0 0 0 0 0;
#X connect 0 0 7 0;
#X connect 1 0 0 0;
#X connect 2 0 0 0;
#X connect 4 0 0 0;
#X connect 6 0 8 0;
#X connect 7 0 6 0;
#X connect 7 1 6 0;
