#N canvas 0 0 450 300 10;
#X obj 129 130 comport;
#X msg 101 93 devices;
#X msg 177 94 open 14;
#X obj 129 176 print;
#X msg 249 118 close;
#X connect 0 0 3 0;
#X connect 1 0 0 0;
#X connect 2 0 0 0;
#X connect 4 0 0 0;
